<svg xmlns="http://www.w3.org/2000/svg" version="1.1" xmlns:xlink="http://www.w3.org/1999/xlink" viewBox="0 0 1422 800" style="overflow: hidden; display: block;" width="1422" height="800"><defs></defs><g id="two-0" transform="matrix(1 0 0 1 0 0)" opacity="1"><path transform="matrix(1 0 0 1 0 0)" id="two-183" d="M 822.897338 379.473876 C 822.897338 379.473876 821.831677 379.149523 821.507324 379.473876 C 821.182963 379.798237 821.831684 380.539561 821.507324 380.863922 C 821.18297 381.188275 820.441662 380.539568 820.117309 380.863922 C 819.792956 381.188275 820.441662 381.929583 820.117309 382.253936 C 819.792956 382.57829 819.051648 381.929583 818.727294 382.253936 C 818.402934 382.578297 818.727294 383.643981 818.727294 383.643981 " fill="transparent" stroke="hsl(0, 0%, 0%)" stroke-width="8" stroke-opacity="1" fill-opacity="1" visibility="visible" stroke-linecap="butt" stroke-linejoin="miter" stroke-miterlimit="4" style="--darkreader-inline-fill: transparent; --darkreader-inline-stroke: var(--darkreader-text-000000, #e8e6e3);" data-darkreader-inline-fill="" data-darkreader-inline-stroke=""></path></g><path d="M 867.8803456309489 309.972412109375 Q 867.8803456309489 309.972412109375 867.8850919955244 312.50705503167546 867.8898383600997 315.04169795397587 868.0657944268129 318.3130240622325 868.2417504935261 321.58435017048913 868.5534774548 324.53739961241956 868.865204416074 327.49044905434994 869.2684945234712 331.33738461332484 869.6717846308684 335.18432017229975 870.1518469597665 338.7283637483243 870.6319092886646 342.2724073243488 871.1652715335781 346.36562769860626 871.6986337784916 350.4588480728637 872.2738542807227 354.18654601307617 872.8490747829538 357.91424395328863 873.4581869902238 361.20249923036465 874.0672991974939 364.4907545074407 874.6996187676917 368.22212057766694 875.3319383378896 371.9534866478932 875.8074727428109 375.08221798601045 876.2830071477322 378.2109493241277 876.8079554744563 381.96989101460997 877.3329038011805 385.7288327050922 877.7280316301333 389.0652689989004 878.123159459086 392.40170529270864 878.4174887884099 395.6021780922007 878.7118181177337 398.8026508916928 878.9303419575076 401.8952147038533 879.1488657972815 404.98777851601386 879.3078282158137 408.3674868776528 879.4667906343461 411.7471952392918 879.5871264756701 414.781897948721 879.707462316994 417.8166006581502 879.9748318441582 420.7310203828076 880.2422013713225 423.645440107465 880.5984113508553 428.84200281006065 880.9546213303881 434.0385655126563 881.150677505948 439.22422892669215 881.3467336815079 444.40989234072805 881.4581324878498 449.00176952041295 881.5695312941917 453.5936467000978 881.633214227774 457.9468594679105 881.6968971613563 462.3000722357232 881.7357211827464 466.0745344659467 881.7745452041363 469.8489966961702 881.8000548851587 472.85823335998214 881.825564566181 475.86747002379406 881.849426195261 479.1167870649788 881.8732878243409 482.36610410616345 881.8890903824743 485.7151356755435 881.9048929406077 489.0641672449235 880.5719528849615 491.7931227131637 879.2390128293152 494.52207818140386 876.550318612694 496.65831412686 873.8616243960728 498.7945500723161 871.545263978946 501.046052015832 869.2289035618192 503.2975539593479 866.9521151928006 505.889056720029 864.6753268237823 508.48055948071004 862.089849566021 511.07708543506214 859.5043723082598 513.6736113894143 857.1285226591774 516.0113639519687 854.752673010095 518.3491165145232 852.7045266937871 520.9277361710022 850.6563803774792 523.5063558274811 848.2240308749285 526.1586400108868 845.7916813723779 528.8109241942925 843.4711410612099 531.2205280500568 841.1506007500419 533.6301319058211 838.5745436919561 536.1065942324976 835.9984866338704 538.5830565591742 833.6965089966147 540.9809831012296 831.3945313593591 543.3789096432849 828.7587201161925 545.6371215991212 826.1229088730258 547.8953335549573 823.4830219812475 550.062708539092 820.8431350894691 552.2300835232267 818.4391704300388 553.9320427377004 816.0352057706084 555.6340019521742 813.1022323037753 557.6533694085609 810.1692588369422 559.6727368649476 807.4839263870608 561.8809257592919 804.7985939371796 564.0891146536362 801.8452810773545 566.3096274296751 798.8919682175293 568.5301402057139 796.4926313678045 570.2349239822944 794.0932945180798 571.9397077588749 794.088370233593 571.9388409126992 794.083445949106 571.9379740665236 794.0785216646191 571.9371072203479 794.0735973801322 571.9362403741723 794.3719268402963 569.747222466011 794.6702563004602 567.5582045578496 796.8119606046712 565.37726034076 798.9536649088823 563.1963161236704 801.700401119849 561.0626022420975 804.4471373308156 558.9288883605246 806.8325188727348 557.2303878680827 809.217900414654 555.531887375641 812.1461436077395 553.309362318078 815.0743868008252 551.0868372605149 817.5537307309426 549.3075625570239 820.0330746610598 547.5282878535329 822.5206233500353 545.4184000334883 825.0081720390107 543.3085122134438 827.447577199317 541.129467430793 829.8869823596233 538.9504226481424 832.3462421016598 536.3732852286312 834.8055018436963 533.7961478091198 837.2318044279231 531.4953180952698 839.6581070121498 529.1944883814199 842.032707824032 526.7040177055616 844.4073086359141 524.2135470297032 846.6188597476541 521.7201497655776 848.8304108593941 519.226752501452 851.0435069886145 516.5384515173988 853.2566031178349 513.8501505333456 855.6541603122716 511.5037680746204 858.0517175067085 509.1573856158951 860.5205891395997 506.46217084865475 862.9894607724909 503.7669560814143 865.5469518320317 501.25216507569223 868.1044428915724 498.7373740699701 870.8545252765872 496.23134802781226 873.604607661602 493.7253219856544 875.7334990271693 491.36893811446134 877.8623903927365 489.01255424326837 877.866688992716 485.6952745577348 877.8709875926954 482.37799487220127 877.8706778161311 479.1329584520237 877.8703680395666 475.88792203184613 877.8622493889156 472.88346871398323 877.8541307382645 469.87901539612034 877.8314612945994 466.11214410969114 877.8087918509344 462.345272823262 877.7600265583839 458.0051414601563 877.7112612658333 453.66501009705064 877.6170349126708 449.0984011838532 877.5228085595081 444.5317922706558 877.3428543018641 439.3912501516792 877.1629000442201 434.2507080327026 876.8315295437237 429.1168513266233 876.5001590432274 423.982994620544 876.2330123024728 420.97197266893806 875.9658655617184 417.9609507173321 875.853047309735 414.9415215634303 875.7402290577515 411.9220924095285 875.5839053460509 408.5839920951446 875.4275816343501 405.2458917807607 875.2197550613679 402.19215142655514 875.0119284883857 399.1384110723495 874.7297190580665 395.9860873836252 874.4475096277473 392.83376369490094 874.0630042455532 389.5381604015348 873.6784988633592 386.2425571081687 873.1491764515481 382.50220570904685 872.619854039737 378.76185430992507 872.1593885493003 375.6668253195177 871.6989230588636 372.5717963291104 871.0655226894291 368.8663067578768 870.4321223199947 365.1608171866432 869.8193207692443 361.8200797922565 869.206519218494 358.4793423978697 868.6190420302553 354.7118674860866 868.0315648420166 350.9443925743035 867.482305214649 346.86077773761497 866.9330455872815 342.77716290092644 866.4387697737009 339.18122962193297 865.9444939601201 335.5852963429395 865.5198957282304 331.73572657170763 865.0952974963407 327.88615680047576 864.7771535673253 324.8384270161728 864.4590096383099 321.79069723186984 864.2728668891051 318.41635081997725 864.0867241399003 315.04200440808467 864.0914705044756 312.50720825872986 864.0962168690511 309.972412109375 864.1237085867308 309.7460047215716 864.1512003044106 309.5195973337681 864.2320776375266 309.3063487539815 864.3129549706426 309.0931001741949 864.4425173247942 308.90540441990174 864.5720796789458 308.71770866560865 864.7427968840223 308.56647462286736 864.9135140890986 308.41524058012607 865.1154640531197 308.3092579786064 865.3174140171407 308.2032753770868 865.5388593987088 308.1487039305688 865.7603047802771 308.09413248405076 865.9883751634112 308.0941438875699 866.2164455465453 308.09415529108907 866.4378854698616 308.1487488818724 866.6593253931779 308.2033424726557 866.8612647579291 308.3093452686418 867.0632041226803 308.41534806462784 867.2339062034988 308.56659917833343 867.4046082843173 308.71785029203903 867.5341518682458 308.90555900162906 867.6636954521741 309.0932677112191 867.7445514600279 309.30652437767276 867.8254074678815 309.51978104412643 867.852876544685 309.7461911799696 867.8803456214886 309.97260131581277 867.8803456262187 309.9725067125939 Z" fill="hsl(0, 0%, 0%)" style="--darkreader-inline-fill: var(--darkreader-background-000000, #000000);" data-darkreader-inline-fill=""></path><path d="M 883.1603603309011 482.97337646980884 Q 883.1603603309011 482.97337646980884 883.5245970676767 483.87714652393277 883.8888338044525 484.7809165780567 885.5100065216243 487.5408560437136 887.131179238796 490.3007955093704 888.6986551481491 492.8554590421048 890.2661310575022 495.41012257483925 892.5960128298514 498.0629716609526 894.9258946022006 500.715820747066 896.9540104606858 503.04333831829604 898.982126319171 505.370855889526 901.1086148515028 507.60593436916383 903.2351033838346 509.84101284880165 905.4965509073813 512.0550072170245 907.7579984309281 514.2690015852473 910.7705738760632 516.5840798797269 913.7831493211983 518.8991581742065 916.8851804142778 521.1874874025575 919.9872115073574 523.4758166309086 922.32480470212 525.2818063229331 924.6623978968827 527.0877960149575 927.4418689530178 528.6658430052934 930.221340009153 530.2438899956293 933.0182911018862 532.1420939393106 935.8152421946196 534.0402978829918 938.8901500286465 535.9624813113433 941.9650578626733 537.8846647396947 944.6356690218613 539.6978260535172 947.3062801810494 541.5109873673398 949.8576745247485 543.1371905924392 952.4090688684478 544.7633938175386 954.1365706847491 547.2500421597997 955.8640725010505 549.7366905020609 955.8603461857977 549.7400243548825 955.8566198705448 549.7433582077042 955.852893555292 549.7466920605259 955.8491672400392 549.7500259133475 954.2648675415232 549.7329520029941 952.6805678430073 549.7158780926409 949.8388454558167 548.1035444461079 946.9971230686261 546.4912107995749 944.617431403245 544.6599936515353 942.2377397378638 542.8287765034956 939.4887627982157 541.1564103978762 936.7397858585676 539.4840442922567 934.223152552128 537.870320839791 931.7065192456884 536.2565973873254 928.9531415683712 534.5958024124245 926.1997638910541 532.9350074375237 923.258910625892 531.0390801807293 920.31805736073 529.1431529239351 917.3754182188939 526.9534853662083 914.4327790770578 524.7638178084813 911.9690515356242 522.869488579381 909.5053239941905 520.9751593502807 907.1685250202205 519.1070665514026 904.8317260462505 517.2389737525244 902.5867748073434 515.0370785945025 900.3418235684363 512.8351834364806 897.9562408646494 510.2923567723467 895.5706581608625 507.7495301082128 893.1867375551946 504.973211502743 890.8028169495266 502.19689289727324 888.7950900655705 499.9152035121877 886.7873631816144 497.63351412710216 885.0741347727181 494.77186793247756 883.3609063638219 491.91022173785296 881.7388142643038 489.10126729547426 880.1167221647858 486.2923128530956 879.7567453700674 485.3855729279715 879.3967685753489 484.4788330028474 879.3340384480125 484.24271720966533 879.271308320676 484.00660141648325 879.2669091037037 483.7623343831863 879.2625098867316 483.5180673498894 879.3166972628206 483.2798458879297 879.3708846389097 483.04162442597 879.480509235216 482.8232939779094 879.5901338315222 482.60496352984876 879.7488242613574 482.4192134715867 879.9075146911927 482.23346341332467 880.106047859319 482.09108954697484 880.3045810274452 481.948715680625 880.531418176803 481.8579927819891 880.7582553261607 481.7672698833531 881.0002126709712 481.73347077156234 881.2421700157819 481.6996716597715 881.4851849837967 481.7247607407912 881.7281999518115 481.749849821811 881.9581485016714 481.83236891707355 882.1880970515314 481.9148880123361 882.3916145627145 482.05004110814775 882.5951320738977 482.1851942039593 882.7603900990919 482.3651261960413 882.9256481242861 482.54505818812316 883.0430418593023 482.75931142064155 883.1604355943186 482.97356465315994 883.1603979626099 482.9734705614844 Z" fill="hsl(0, 0%, 0%)" style="--darkreader-inline-fill: var(--darkreader-background-000000, #000000);" data-darkreader-inline-fill=""></path><path d="M 876.8785841130565 389.37914848286624 Q 876.8785841130565 389.37914848286624 877.4217336226925 388.65101600699484 877.9648831323285 387.92288353112343 880.4702659171336 385.33095967398305 882.9756487019387 382.73903581684266 885.5749896514076 381.2699709303175 888.1743306008765 379.80090604379234 891.081347700353 378.43426691083596 893.9883647998296 377.0676277778796 896.6602015732898 375.778932801858 899.33203834675 374.4902378258364 902.0027476263351 373.2442035891798 904.6734569059201 371.9981693525232 907.4484478463639 370.81068522145483 910.2234387868078 369.62320109038654 913.3322993378695 367.8847830986817 916.4411598889311 366.1463651069768 919.2786323098121 364.6962918858678 922.1161047306931 363.24621866475877 924.9049935559897 361.8443400251976 927.6938823812864 360.4424613856364 930.5427637673797 358.2988628915351 933.391645153473 356.1552643974339 934.9532880040205 353.4918130001155 936.514930854568 350.82836160279714 937.4814437290232 347.9324035910297 938.4479566034785 345.0364455792622 939.4659563322766 341.464336466079 940.4839560610747 337.8922273528958 940.9474883260098 334.8059558155256 941.4110205909449 331.71968427815534 942.3676995025526 328.5876895218223 943.3243784141602 325.4556947654893 943.7898131852851 322.2692926794944 944.25524795641 319.08289059349954 946.404339879638 316.0865719595213 948.553431802866 313.09025332554296 948.5582649734357 313.0915341308539 948.5630981440054 313.0928149361648 948.567931314575 313.0940957414757 948.5727644851447 313.09537654678667 948.4447185783047 317.6007162488945 948.3166726714646 322.1060559510024 947.4758054408481 325.57533996349537 946.6349382102317 329.0446239759884 946.0212039570673 331.9940826088724 945.407469703903 334.9435412417564 944.6966732121813 338.2250829877157 943.9858767204596 341.50662473367504 943.0850059240936 344.9392256903085 942.1841351277275 348.37182664694194 940.8751199269298 351.1905796654221 939.5661047261322 354.0093326839022 937.7588896854352 356.7290240355534 935.9516746447382 359.44871538720463 933.7505195674519 361.41263065169284 931.5493644901655 363.37654591618104 928.7655869464452 364.7681916639517 925.9818094027248 366.1598374117223 923.1856076189457 367.5699231614818 920.3894058351666 368.9800089112413 917.5131058023239 370.5081809901643 914.6368057694814 372.03635306908734 911.7543801698588 373.37003320665696 908.8719545702362 374.70371334422657 905.7807764684956 376.06716465482907 902.6895983667549 377.43061596543157 899.9595015423354 378.7521843259053 897.2294047179159 380.0737526863791 894.2868718916449 381.47416129651907 891.3443390653738 382.874569906659 888.4435956477428 384.4068692583428 885.5428522301116 385.93916861002657 883.3738320525537 388.153847587059 881.2048118749957 390.3685265640914 880.6616490372196 391.08880525155007 880.1184861994435 391.80908393900876 879.949563350131 391.98527632318206 879.7806405008184 392.16146870735537 879.574459640073 392.2921137911619 879.3682787793276 392.4227588749684 879.1368231484632 392.500263559999 878.9053675175988 392.5777682450296 878.6620893287561 392.5976279553487 878.4188111399135 392.61748766566785 878.1778497328585 392.57854815397866 877.9368883258035 392.53960864228947 877.7122483888356 392.4441330748409 877.4876084518678 392.3486575073923 877.2923460686784 392.2021949286504 877.0970836854891 392.05573234990845 876.9425475149635 391.8667951718312 876.7880113444379 391.6778579937539 876.6831830360679 391.4574272540083 876.5783547276978 391.2369965142626 876.5293269076911 390.99788365779955 876.4802990876844 390.75877080133654 876.4899212552435 390.51487307860833 876.4995434228026 390.2709753558801 876.5672563370968 390.0364681139913 876.6349692513909 389.8019608721024 876.7568374346599 389.59047368296973 876.8787056179289 389.37898649383703 876.8786448654927 389.37906748835167 Z" fill="hsl(0, 0%, 0%)" style="--darkreader-inline-fill: var(--darkreader-background-000000, #000000);" data-darkreader-inline-fill=""></path><path d="M 946.2715150041764 309.5701031728367 Q 946.2715150041764 309.5701031728367 945.6830051230475 306.5440114757513 945.0944952419186 303.5179197786658 945.0988364576292 303.515439083974 945.1031776733398 303.51295838928223 945.1075188890504 303.51047769459046 945.111860104761 303.50799699989864 947.4201725502924 305.5513443744685 949.7284849958236 307.5946917490383 949.8215605012895 307.81587634696103 949.9146360067552 308.03706094488376 949.9520721448855 308.2740930347743 949.9895082830157 308.5111251246648 949.969129263703 308.7502283903217 949.9487502443905 308.9893316559787 949.8717404971951 309.2166094043679 949.7947307499996 309.44388715275704 949.6655660850467 309.64612999046346 949.5364014200937 309.84837282816994 949.3625888937792 310.01382639196385 949.1887763674646 310.17927995575775 948.9804179719843 310.29832807673756 948.7720595765039 310.4173761977173 948.5412651115928 310.48309979349824 948.3104706466818 310.5488233892792 948.0706538974844 310.55740260138646 947.8308371482871 310.56598181349375 947.5959362755345 310.51691801771653 947.361035402782 310.4678542219394 947.1447028562354 310.36399900839353 946.928370309689 310.26014379484775 946.743179347118 310.10753323342425 946.557988384547 309.95492267200075 946.4147023133974 309.7624264956998 946.2714162422478 309.56993031939885 946.2714656232122 309.57001674611774 Z" fill="hsl(0, 0%, 0%)" style="--darkreader-inline-fill: var(--darkreader-text-000000, #e8e6e3);" data-darkreader-inline-fill=""></path><path d="M 945.9739271562341 304.4123229980469 Q 945.9739271562341 304.4123229980469 945.971853134935 303.1449612426758 945.9697791136359 301.8775994873047 945.963071347003 298.82485467347414 945.9563635803702 295.7721098596436 946.3792850337107 292.7766026548161 946.8022064870513 289.78109544998864 949.5248375237634 286.6241970383663 952.2474685604755 283.4672986267439 952.2519679741304 283.46947928645176 952.2564673877854 283.4716599461596 952.2609668014404 283.47384060586745 952.2654662150953 283.4760212655753 951.955823832767 286.1149878467478 951.6461814504388 288.75395442792035 950.8449089350343 292.26303214378197 950.0436364196298 295.7721098596436 950.036928652997 298.82485467347414 950.0302208863641 301.8775994873047 950.028146865065 303.1449612426758 950.0260728437659 304.4123229980469 949.9966339815473 304.6547660484395 949.9671951193287 304.89720909883215 949.8805895207283 305.12556134774485 949.793983922128 305.35391359665755 949.6552451086055 305.5549032006544 949.5165062950831 305.75589280465124 949.3336977729991 305.9178382385045 949.1508892509153 306.07978367235773 948.9346358601626 306.1932726598428 948.7183824694099 306.30676164732796 948.4812528672196 306.36519820316005 948.2441232650294 306.42363475899214 947.9998994350224 306.4236225478006 947.7556756050154 306.42361033660916 947.5185518476665 306.3651500681091 947.2814280903174 306.30668979960893 947.0651860495448 306.19317918735226 946.848944008772 306.0796685750955 946.6661516821455 305.9177048611998 946.483359355519 305.75574114730415 946.3446406416507 305.5547376704309 946.2059219277824 305.35373419355767 946.1193391648399 305.12537328522694 946.0327564018972 304.89701237689616 946.003341784131 304.6545663838295 945.9739271663645 304.4121203907628 945.9739271612993 304.4122216944048 Z" fill="hsl(0, 0%, 0%)" style="--darkreader-inline-fill: var(--darkreader-text-000000, #e8e6e3);" data-darkreader-inline-fill=""></path><path d="M 949.2235542425154 304.5052665582303 Q 949.2235542425154 304.5052665582303 950.1273086935423 303.41831207130645 951.0310631445693 302.33135758438254 952.8201062159602 299.9630620295799 954.6091492873511 297.59476647477715 956.8342112950891 295.25554863753706 959.0592733028271 292.916330800297 962.9226451340064 289.971038329337 966.7860169651856 287.025745858377 966.7903183416493 287.028295007356 966.794619718113 287.03084415633504 966.7989210945768 287.03339330531406 966.8032224710405 287.0359424542931 964.8256741434784 290.83411845301293 962.8481258159162 294.6322944517327 960.4010852299868 297.28510889967663 957.9540446440576 299.9379233476206 956.0520459255254 302.43300378310823 954.1500472069931 304.9280842185959 953.2432757791139 306.01374647666717 952.3365043512346 307.09940873473846 952.1586791920884 307.26681251986287 951.9808540329423 307.4342163049873 951.7681328787558 307.55419765795887 951.5554117245692 307.67417901093046 951.3201579388183 307.73976460987717 951.0849041530673 307.8053502088239 950.8407906968332 307.81272821565346 950.5966772405992 307.82010622248305 950.3578919994278 307.76884782709186 950.1191067582564 307.7175894317007 949.899527941584 307.61067377443726 949.6799491249116 307.50375811717385 949.49233866388 307.3473991410617 949.3047282028483 307.19104016494964 949.1599900262675 306.99432546102696 949.0152518496865 306.7976107571043 948.9217981471797 306.57197339320567 948.828344444673 306.34633602930705 948.7916067498211 306.10489005962376 948.754869054969 305.86344408994046 948.7769825643227 305.6202223655748 948.7990960736764 305.3770006412092 948.8787755490332 305.14613922020897 948.9584550243899 304.9152777992088 949.0910694908981 304.7101943582096 949.2236839574064 304.50511091721046 949.2236190999608 304.50518873772035 Z" fill="hsl(0, 0%, 0%)" style="--darkreader-inline-fill: var(--darkreader-text-000000, #e8e6e3);" data-darkreader-inline-fill=""></path><path d="M 954.9080206015753 308.54027592466775 Q 954.9080206015753 308.54027592466775 955.6294319298094 307.8153948431559 956.3508432580434 307.0905137616441 958.44368808938 304.7829225670295 960.5365329207165 302.4753313724149 962.8563873050521 300.6608805394093 965.1762416893878 298.8464297064037 967.4347958274333 298.506298388594 969.6933499654788 298.1661670707843 969.6970321929539 298.16954955519986 969.700714420429 298.17293203961543 969.7043966479041 298.176314524031 969.7080788753792 298.17969700844657 968.9576028435496 300.0854679806774 968.20712681172 301.9912389529082 965.6959573738784 303.79568714891275 963.184787936037 305.6001353449173 961.2055324281082 307.77881968751063 959.2262769201793 309.95750403010396 958.4992770850832 310.6810261620931 957.7722772499872 311.40454829408225 957.5800967492653 311.55511005724543 957.3879162485435 311.70567182040855 957.1652876048078 311.8058650156506 956.942658961072 311.9060582108927 956.7025213615561 311.9500596049987 956.4623837620404 311.9940609991047 956.2186940153113 311.97931322898177 955.9750042685822 311.96456545885883 955.7419256341695 311.89192566559944 955.5088469997568 311.81928587234006 955.2999260188436 311.6929758841414 955.0910050379305 311.5666658959427 954.9183842077437 311.39402685525357 954.7457633775567 311.2213878145644 954.6194754288572 311.01245351054104 954.4931874801576 310.8035192065176 954.4205722744575 310.57043291072654 954.3479570687574 310.3373466149355 954.3332350052237 310.09365531383963 954.3185129416902 309.8499640127438 954.3625396673473 309.60983105621267 954.4065663930044 309.3696980996815 954.5067830724885 309.14708002643124 954.6069997519726 308.92446195318104 954.7575817871634 308.73229733608866 954.9081638223543 308.54013271899623 954.9080922119648 308.540204321832 Z" fill="hsl(0, 0%, 0%)" style="--darkreader-inline-fill: var(--darkreader-text-000000, #e8e6e3);" data-darkreader-inline-fill=""></path><path d="M 950.1393214620507 312.22038655212225 Q 950.1393214620507 312.22038655212225 951.221827408339 311.85739799313205 952.3043333546273 311.4944094341419 955.4556652570129 310.25370094664163 958.6069971593987 309.0129924591413 962.4005994695815 308.8502611468809 966.1942017797642 308.6875298346205 966.1966686506285 308.6918789205174 966.1991355214927 308.69622800641434 966.201602392357 308.7005770923113 966.2040692632213 308.7049261782082 962.8941950550591 310.84889631792527 959.584320846897 312.9928664576423 956.5926477378341 314.1675400199289 953.6009746287712 315.3422135822155 952.5108558802352 315.7034306048904 951.4207371316993 316.06464762756525 951.1814224881109 316.1133871514787 950.9421078445226 316.1621266753922 950.698083194532 316.15217629730415 950.4540585445415 316.1422259192161 950.2195066122715 316.07416395556857 949.9849546800016 316.006101991921 949.7735076347763 315.883884207239 949.5620605895508 315.761666422557 949.3860077435733 315.59239612022867 949.2099548975957 315.4231258179003 949.079528450546 315.21664099585007 948.9491020034964 315.0101561737998 948.8718823466052 314.7784577395869 948.794662689714 314.54675930537394 948.7751378330679 314.30331358288106 948.7556129764218 314.05986786038824 948.7949177056065 313.818823926445 948.8342224347912 313.57777999250175 948.9300723570997 313.3531473318743 949.0259222794082 313.1285146712468 949.1727465928525 312.93334894472514 949.3195709062967 312.7381832182034 949.5088361748808 312.58382746698277 949.698101443465 312.42947171576213 949.9188075608863 312.32489710335585 950.1395136783077 312.2203224909495 950.1394175701791 312.2203545215359 Z" fill="hsl(0, 0%, 0%)" style="--darkreader-inline-fill: var(--darkreader-text-000000, #e8e6e3);" data-darkreader-inline-fill=""></path><path d="M 944.1843617924267 310.3083131129679 Q 944.1843617924267 310.3083131129679 943.2753643844942 309.7661069984403 942.3663669765618 309.22390088391273 941.173075139059 306.71661925959336 939.9797833015563 304.20933763527404 939.9829700786427 304.20548478544544 939.9861568557291 304.20163193561683 939.9893436328155 304.1977790857882 939.9925304099019 304.1939262359596 942.2224814053907 304.9811057393779 944.4524324008795 305.7682852427962 945.3539449721952 306.31238352585166 946.2554575435108 306.8564818089071 946.4469367913392 307.0054746646101 946.6384160391676 307.1544675203132 946.788673458525 307.3449560536363 946.9389308778822 307.5354445869594 947.0392335004954 307.7563575953957 947.1395361231087 307.977270603832 947.1840543558388 308.2157686129517 947.228572588569 308.4542666220714 947.2147190296383 308.69648811637865 947.2008654707076 308.93870961068586 947.1294452896119 309.1705766655508 947.0580251085162 309.4024437204157 946.9331892495364 309.61048021171536 946.8083533905567 309.818516703015 946.6373573196822 309.9906315401005 946.4663612488076 310.1627463771859 946.2591432657118 310.28893623763895 946.0519252826159 310.41512609809206 945.8205289062123 310.4880568212942 945.5891325298088 310.5609875444964 945.3470065283664 310.57642039338856 945.1048805269238 310.5918532422807 944.8660972750224 310.54889125896005 944.6273140231209 310.5059292756394 944.4057516145801 310.40706941259515 944.1841892060395 310.3082095495509 944.1842754992331 310.30826133125936 Z" fill="hsl(0, 0%, 0%)" style="--darkreader-inline-fill: var(--darkreader-text-000000, #e8e6e3);" data-darkreader-inline-fill=""></path><path d="M 884.8077112442071 222.93341135540547 Q 884.8077112442071 222.93341135540547 883.7206247646984 222.57350000304345 882.6335382851897 222.21358865068143 879.3767917757255 220.97537572844453 876.1200452662611 219.7371628062076 872.6824841047471 218.97417752300197 869.2449229432333 218.21119223979633 865.9041846189732 217.97336769671924 862.5634462947131 217.73554315364214 859.0291236018836 217.66514717135277 855.4948009090541 217.59475118906343 852.2225398040644 217.7343244753095 848.9502786990746 217.87389776155555 846.0511232615288 218.5364483829724 843.151967823983 219.19899900438924 840.3195428229901 220.52827175403215 837.4871178219972 221.85754450367506 834.9523994773085 223.53254784906358 832.4176811326198 225.20755119445207 830.0079544633234 227.56167288158656 827.598227794027 229.91579456872103 825.1956686952503 232.59674233694295 822.7931095964735 235.27769010516488 820.6946436419578 237.8393796968325 818.5961776874422 240.40106928850014 817.0701804034803 243.62802257632956 815.5441831195185 246.85497586415897 814.4704414778546 249.87584917312543 813.3966998361906 252.8967224820919 812.828887678622 256.2144480165766 812.2610755210534 259.5321735510613 811.8274274605769 262.7105981682464 811.3937794001004 265.88902278543156 811.2890907504964 269.60880283225003 811.1844021008923 273.32858287906856 812.0345793644206 276.7732488196682 812.8847566279488 280.2179147602678 814.3736853321532 283.3309024970804 815.8626140363574 286.44389023389294 817.3434089676178 289.0733320902599 818.8242038988783 291.70277394662685 820.7341569525254 294.32066640166164 822.6441100061724 296.93855885669643 824.7587120278017 299.04373294920856 826.873314049431 301.1489070417207 829.5634485813184 302.59409581901514 832.253583113206 304.0392845963096 835.1896102865851 304.87209853234947 838.1256374599642 305.7049124683893 841.3831894580997 306.56112271754296 844.6407414562352 307.41733296669656 847.8531862599791 307.58034641531776 851.0656310637231 307.74335986393896 854.4846908966259 307.78081336362936 857.9037507295287 307.81826686331976 861.3665335196836 307.82661388249664 864.8293163098384 307.8349609016736 868.3431226395916 307.30443214331893 871.8569289693447 306.7739033849643 875.1910977499056 305.2966101580563 878.5252665304664 303.81931693114825 881.2458314872675 302.11496213434737 883.9663964440687 300.41060733754654 887.0076523256514 298.6879182387915 890.048908207234 296.96522914003646 892.2520372219265 294.6521144170431 894.455166236619 292.33899969404973 896.4772136156514 289.5852251256256 898.4992609946837 286.8314505572015 899.9673743055846 284.2396614515134 901.4354876164855 281.64787234582536 902.2628090132922 278.6702837835004 903.0901304100989 275.6926952211754 903.7168600757188 271.95899948194375 904.3435897413387 268.2253037427121 904.8095109179692 264.6698201965483 905.2754320945995 261.11433665038453 905.3743072121356 257.84262219281726 905.4731823296718 254.57090773525002 905.0991073687912 250.86760303597973 904.7250324079108 247.16429833670944 904.0135441091712 244.00222338771226 903.3020558104316 240.84014843871506 901.8956486933475 237.46102510210432 900.4892415762636 234.0819017654936 899.1795082163894 231.3557888155851 897.8697748565152 228.6296758656766 895.3872150421666 226.16871075644326 892.9046552278182 223.70774564720995 890.2944988019061 220.53347367486236 887.684342375994 217.35920170251478 887.6875759903373 217.35538807716893 887.6908096046807 217.35157445182304 887.694043219024 217.34776082647716 887.6972768333674 217.3439472011313 891.3406708727196 218.49567849376717 894.9840649120716 219.64740978640302 897.2772664701281 221.91094047505817 899.5704680281845 224.17447116371335 901.3901555753021 226.84944946084028 903.2098431224196 229.52442775796717 904.4998096932778 232.299669964224 905.7897762641361 235.07491217048081 906.8395460914099 237.87214009315636 907.8893159186838 240.6693680158319 908.4246242524245 243.69021898127684 908.9599325861651 246.71106994672178 909.3586273442397 249.92154269749676 909.7573221023143 253.13201544827177 909.6840746586474 256.3431944192189 909.6108272149804 259.554373390166 909.3533415982242 262.7838877074389 909.0958559814682 266.01340202471175 908.5262619754569 269.22607332825123 907.9566679694457 272.43874463179066 907.1213680572234 275.9341836214479 906.2860681450012 279.42962261110523 905.1473509560592 282.61230948121647 904.0086337671172 285.79499635132777 901.9662957396781 288.77766840046104 899.9239577122389 291.7603404495943 898.1910632962251 294.29730580408227 896.4581688802112 296.8342711585702 893.9380033342344 298.9224473257582 891.4178377882575 301.01062349294625 888.8331586589317 302.5191245339166 886.2484795296058 304.02762557488705 883.2053185793118 305.89750770818534 880.1621576290178 307.7673898414836 877.0451320045428 309.07519698217504 873.9281063800678 310.3830041228665 870.9386730661028 311.0017621761491 867.9492397521377 311.6205202294317 864.3029985482308 311.85692710494266 860.656757344324 312.0933339804537 857.189444221487 312.0724885363076 853.7221310986499 312.05164309216156 850.2794109388674 311.95566222296134 846.8366907790847 311.8596813537611 843.4527842096802 311.3717329986714 840.0688776402758 310.8837846435817 837.023296234227 309.7776518363174 833.9777148281784 308.67151902905306 830.9789105470812 307.8373679889271 827.9801062659841 307.00321694880114 825.361912360092 305.0034189160855 822.7437184542 303.00362088336976 820.619800114571 300.8918483552517 818.4958817749422 298.7800758271336 816.559608769558 295.77787347534934 814.6233357641738 292.775671123565 812.9915627579617 289.75047611008796 811.3597897517494 286.7252810966109 810.0502240946865 283.9462767128665 808.7406584376237 281.1672723291221 807.8300706871028 278.030985301638 806.9194829365819 274.89469827415394 806.9701729315722 271.66138304246124 807.0208629265625 268.4280678107685 807.301001708779 264.83452037810855 807.5811404909956 261.2409729454487 808.1965002741413 257.90580790274197 808.8118600572869 254.57064286003524 809.7672527704904 251.4725294806548 810.7226454836937 248.37441610127436 811.664493455253 245.36837344835806 812.6063414268124 242.36233079544175 814.7632513652659 239.0739866419564 816.9201613037193 235.78564248847104 819.1461923440095 233.03132108936427 821.3722233842996 230.27699969025753 823.9336819839447 227.71323929474417 826.4951405835898 225.14947889923081 828.9637741822603 222.92116963740438 831.4324077809308 220.69286037557794 834.1133033053035 219.02351460501643 836.7941988296761 217.3541688344549 840.0870835366374 216.1161435216667 843.3799682435986 214.8781182088785 846.7900282226321 214.13524681628436 850.2000882016657 213.39237542369023 853.7289171491266 213.42662044331928 857.2577460965873 213.4608654629483 860.8930852899948 213.56974283787994 864.5284244834022 213.67862021281158 868.0934832635965 214.04387065483274 871.6585420437907 214.4091210968539 874.7241588460886 215.2078659616954 877.7897756483865 216.00661082653687 880.8541793200261 217.18284932950485 883.9185829916656 218.35908783247285 885.004105307323 218.72338206177588 886.0896276229804 219.0876762910789 886.3104078340916 219.19231363993106 886.531188045203 219.29695098878318 886.7205102400299 219.45138538566113 886.9098324348569 219.60581978253904 887.0566931985409 219.80107549304012 887.2035539622249 219.99633120354122 887.2994177402804 220.22105995659712 887.395281518336 220.44578870965302 887.4345767034783 220.68692925957725 887.4738718886207 220.92806980950152 887.4543146428431 221.1716070562026 887.4347573970655 221.41514430290366 887.3574843884114 221.6469238501607 887.2802113797574 221.87870339741778 887.1497137191204 222.08525420705416 887.0192160584836 222.29180501669052 886.8430782760315 222.4611223459454 886.6669404935794 222.63043967520025 886.4553997255041 222.75268279294198 886.2438589574286 222.87492591068371 886.0092099631097 222.94299004116556 885.7745609687908 223.01105417164743 885.530441558803 223.02098342440786 885.2863221488153 223.03091267716826 885.0469205547372 222.9821299635703 884.807518960659 222.9333472499723 884.807615102433 222.93337930268888 Z" fill="hsl(0, 0%, 0%)" style="--darkreader-inline-fill: var(--darkreader-background-000000, #000000);" data-darkreader-inline-fill=""></path><path d="M 842.8478613780399 270.2995357275998 Q 842.8478613780399 270.2995357275998 843.2124725980499 271.2040237118672 843.5770838180599 272.10851169613466 845.5672008976435 275.24429345806425 847.5573179772272 278.38007521999384 850.2973848420006 280.0817239354384 853.037451706774 281.7833726508829 856.5222492533032 282.4941379285841 860.0070467998324 283.2049032062854 863.8996510516424 282.8053056670586 867.7922553034525 282.40570812783176 869.9943156840318 280.27801547008727 872.196376064611 278.1503228123428 873.2723013888303 275.34991894494965 874.3482267130496 272.5495150775565 874.5975681661698 269.49151775695526 874.8469096192902 266.433520436354 875.760315722239 264.6152670515147 876.6737218251881 262.7970136666754 876.6784599506568 262.795416742431 876.6831980761256 262.79381981818653 876.6879362015943 262.7922228939421 876.6926743270631 262.79062596969766 877.8751040906611 264.69847281082286 879.0575338542591 266.60631965194807 878.756425942724 270.0142663532876 878.4553180311889 273.42221305462715 877.3865908811333 276.24629446107434 876.3178637310778 279.07037586752153 874.2003171032293 281.9235224195712 872.0827704753809 284.77666897162084 869.1657477908507 285.79272080706215 866.2487251063203 286.80877264250347 863.186880521911 287.080505289696 860.1250359375016 287.3522379368885 856.3405596040234 286.65630103731394 852.5560832705451 285.9603641377394 849.8212424476906 284.70371834981813 847.0864016248361 283.4470725618968 844.9150915493935 281.40892974968335 842.743781473951 279.3707869374699 841.2752747617834 276.49325282452503 839.8067680496158 273.61571871158014 839.4471657381317 272.7096967165995 839.0875634266476 271.80367472161896 839.0248881991961 271.5677655712484 838.9622129717446 271.3318564208779 838.9578176048603 271.08780316416 838.953422237976 270.8437499074421 839.0075621905887 270.6057369311241 839.0617021432015 270.36772395480614 839.1712307987216 270.1495845842546 839.2807594542418 269.93144521370317 839.4393110020644 269.7458577193839 839.5978625498869 269.5602702250646 839.796221966603 269.41802096086707 839.994581383319 269.27577169666955 840.221220010309 269.18512819651255 840.4478586372991 269.0944846963556 840.689604226914 269.0607151647272 840.9313498165288 269.0269456330987 841.1741521037418 269.05201275676365 841.4169543909546 269.0770798804286 841.6467016954248 269.1595267569818 841.8764489998948 269.24197363353494 842.0797883974917 269.3770084466373 842.2831277950886 269.5120432597397 842.4482411904701 269.69181777970925 842.6133545858514 269.87159229967875 842.7306455807201 270.08565802296806 842.8479365755887 270.29972374625737 842.8478989768143 270.2996297369286 Z" fill="hsl(0, 0%, 0%)" style="--darkreader-inline-fill: var(--darkreader-text-000000, #e8e6e3);" data-darkreader-inline-fill=""></path><path d="M 841.5422122224618 244.24815366539946 Q 841.5422122224618 244.24815366539946 840.7459073015915 245.34887936250234 839.9496023807212 246.44960505960523 839.9446994752727 246.4505856299308 839.9397965698242 246.45156620025634 839.9348936643757 246.45254677058188 839.9299907589273 246.45352734090744 838.771587022139 245.74373908384774 837.6131832853507 245.03395082678804 837.5947128440005 244.79316512701365 837.5762424026501 244.5523794272393 837.6159343008262 244.31417056166396 837.6556261990024 244.0759616960886 837.7511735417181 243.85417437517174 837.8467208844339 243.6323870542549 837.9925704556413 243.43991156750886 838.1384200268487 243.2474360807628 838.3260950426165 243.09545911252067 838.5137700583842 242.94348214427853 838.7323628379781 242.84083660307513 838.950955617572 242.73819106187173 839.1877615383714 242.6908427113846 839.4245674591709 242.64349436089745 839.6658233499327 242.65419508948156 839.9070792406945 242.66489581806565 840.1387632977123 242.7330236988729 840.3704473547301 242.80115157968015 840.5790940897243 242.92274701707709 840.7877408247186 243.044342454474 840.9612236796484 243.21233831592593 841.134706534578 243.38033417737785 841.2629426777635 243.58496653552396 841.3911788209489 243.78959889367005 841.4667151617231 244.01897450624026 841.5422515024973 244.24835011881046 841.5422318624795 244.24825189210497 Z" fill="hsl(0, 0%, 0%)" style="--darkreader-inline-fill: var(--darkreader-text-000000, #e8e6e3);" data-darkreader-inline-fill=""></path><path d="M 873.524544333763 236.63024089158 Q 873.524544333763 236.63024089158 872.3603472137759 237.55268724092952 871.1961500937889 238.475133590279 871.1912181285595 238.47431156900424 871.1862861633301 238.47348954772949 871.1813541981007 238.47266752645473 871.1764222328713 238.47184550517997 870.3743398284605 237.22167510953437 869.5722574240496 235.97150471388875 869.6403835131377 235.7398220145887 869.7085096022258 235.50813931528864 869.8301029750378 235.29949346975698 869.9516963478496 235.09084762422532 870.1196899918444 234.9173651388075 870.2876836358392 234.7438826533897 870.4923137525349 234.6156463382893 870.6969438692305 234.4874100231889 870.9263173466301 234.41187297906467 871.1556908240296 234.33633593494045 871.3964764648497 234.317888378346 871.6372621056696 234.29944082175155 871.8754654371523 234.3391549255429 872.1136687686351 234.37886902933425 872.3354454019627 234.4744366079331 872.5572220352904 234.57000418653192 872.7496823021138 234.71587084777985 872.9421425689374 234.8617375090278 873.0941006695062 235.0494254757196 873.2460587700751 235.23711344241138 873.3486828924446 235.4557142811044 873.451307014814 235.67431511979746 873.4986326401702 235.91112373947598 873.5459582655263 236.1479323591545 873.5352348262999 236.3891854317164 873.5245113870734 236.63043850427832 873.5245278604182 236.63033969792917 Z" fill="hsl(0, 0%, 0%)" style="--darkreader-inline-fill: var(--darkreader-text-000000, #e8e6e3);" data-darkreader-inline-fill=""></path><path d="M 870.7963091412311 391.08432677871605 Q 870.7963091412311 391.08432677871605 869.8902881347874 390.7247260350306 868.9842671283437 390.3651252913452 865.4101478133872 389.131710228725 861.8360284984307 387.89829516610484 858.5416647109993 386.944770752428 855.2473009235679 385.9912463387511 850.9576432223722 385.29986742138254 846.6679855211765 384.60848850401396 843.7473952784055 384.2289132674092 840.8268050356344 383.84933803080446 837.5800104883399 383.31471327560143 834.3332159410455 382.78008852039835 830.6474461351439 382.4102592055144 826.9616763292423 382.0404298906305 824.0025054247042 381.8929432469556 821.0433345201661 381.74545660328073 818.6325012956584 380.65689490450575 816.2216680711506 379.56833320573077 816.2217630626053 379.5633341081499 816.2218580540601 379.55833501056895 816.221953045515 379.553335912988 816.2220480369697 379.54833681540714 818.7158666630525 378.58416324751744 821.2096852891352 377.61998967962774 824.2370211885038 377.78008750799705 827.2643570878726 377.94018533636637 831.0884592345508 378.33094472692744 834.912561381229 378.7217041174885 838.0988530117402 379.24524410578636 841.2851446422512 379.76878409408425 844.369203793733 380.1723705966696 847.4532629452148 380.575957099255 851.7967520921012 381.27818973945693 856.1402412389876 381.9804223796589 859.863299279176 383.08793763681996 863.5863573193643 384.19545289398104 867.0389359951685 385.3950597821529 870.4915146709726 386.5946666703247 871.396003643777 386.95927150830437 872.3004926165814 387.32387634628395 872.5145554096039 387.44119251626694 872.7286182026263 387.5585086862499 872.9083838524953 387.7236458238757 873.0881495023643 387.8887829615014 873.2231700210632 388.0921432885722 873.3581905397622 388.29550361564293 873.4406185284004 388.52526782039445 873.5230465170384 388.755032025146 873.5480912570433 388.99784620120283 873.5731359970482 389.24066037725964 873.5393418869539 389.48241215330063 873.5055477768598 389.72416392934167 873.4148789319329 389.95080268078476 873.3242100870061 390.17744143222785 873.1819361847738 390.37579490419057 873.0396622825416 390.5741483761533 872.8540522888864 390.73268825552555 872.6684422952312 390.8912281348978 872.4502838717051 391.0007400764415 872.2321254481791 391.11025201798526 871.9940979726077 391.1643711825125 871.7560704970363 391.2184903470398 871.5120081374832 391.2140713261655 871.2679457779303 391.20965230529123 871.0320334502003 391.14695193271626 870.7961211224703 391.0842515601413 870.7962151318507 391.08428916942864 Z" fill="hsl(0, 0%, 0%)" style="--darkreader-inline-fill: var(--darkreader-background-000000, #000000);" data-darkreader-inline-fill=""></path><path d="M 819.7696522890287 385.3812620113503 Q 819.7696522890287 385.3812620113503 818.8652411792949 385.92679488416155 817.9608300695611 386.4723277569728 815.0416510349422 388.0430182537169 812.1224720003233 389.613708750461 809.0532143669225 391.57367120816264 805.9839567335216 393.5336336658642 803.0878716074058 395.23508249941165 800.1917864812899 396.9365313329591 797.138925479007 398.01957110606554 794.0860644767241 399.102610879172 794.0819160930141 399.0998196585439 794.0777677093041 399.0970284379158 794.0736193255941 399.09423721728774 794.0694709418841 399.0914459966596 796.7082699560028 395.96055085071714 799.3470689701214 392.8296557047746 802.0008456526413 391.2060243745274 804.6546223351611 389.5823930442802 807.6139324936294 387.7040847079694 810.5732426520976 385.82577637165855 813.222975334237 384.40701063851964 815.8727080163765 382.9882449053808 816.7788227855489 382.447473380609 817.6849375547213 381.9067018558372 817.9079686751187 381.80721444033384 818.1309997955161 381.70772702483043 818.3713592662939 381.664507222463 818.6117187370717 381.62128742009554 818.855436854495 381.6368471678083 819.0991549719183 381.65240691552106 819.3320668275514 381.7258418800459 819.5649786831847 381.7992768445707 819.773547429035 381.9263189823191 819.9821161748854 382.05336112006745 820.1542197856445 382.2266267360244 820.3263233964035 382.3998923519814 820.4519592021278 382.60931124040667 820.5775950078521 382.81873012883193 820.64946104961 383.0521308540907 820.7213270913677 383.2855315793495 820.7352465114354 383.5293488803235 820.7491659315032 383.7731661812975 820.7043297325324 384.01322938499834 820.6594935335618 384.2532925886992 820.5585075975436 384.4756492104485 820.4575216615253 384.69800583219785 820.3062552958056 384.8897324946922 820.1549889300859 385.08145915718654 819.9622337429477 385.23141269779353 819.7694785558094 385.38136623840046 819.7695654224191 385.3813141248754 Z" fill="hsl(0, 0%, 0%)" style="--darkreader-inline-fill: var(--darkreader-text-000000, #e8e6e3);" data-darkreader-inline-fill=""></path><path d="M 809.3447901013357 367.3107563275057 Q 809.3447901013357 367.3107563275057 808.4381505138955 366.76969195176594 807.5315109264553 366.22862757602616 804.7024096852664 363.89412480073076 801.8733084440775 361.5596220254354 799.8209208950327 358.7840257699017 797.768533345988 356.008429514368 797.7710345449152 356.0041000797713 797.7735357438423 355.9997706451747 797.7760369427695 355.99544121057806 797.7785381416967 355.9911117759814 801.3223809096538 357.37714781895147 804.866223677611 358.76318386192156 807.2439313572672 360.7545741939731 809.6216390369235 362.74596452602464 810.5255094287314 363.29121249769696 811.4293798205393 363.8364604693693 811.6221051064762 363.98642388487156 811.814830392413 364.1363873003739 811.9660653625699 364.32811639474966 812.1173003327269 364.51984548912543 812.2182552035329 364.7421969584012 812.3192100743387 364.9645484276771 812.364017343959 365.2045991940115 812.4088246135791 365.4446499603459 812.394880081398 365.68844826192077 812.3809355492169 365.93224656349565 812.3090496721001 366.16562283156867 812.2371637949832 366.3989990996417 812.1115145834863 366.6083894945473 811.9858653719892 366.81777988945294 811.8137555641879 366.99101463160105 811.6416457563865 367.1642493737492 811.4330783823968 367.2912600517868 811.2245110084071 367.4182707298244 810.9916080138048 367.4916754771764 810.7587050192024 367.56508022452834 810.5150027369766 367.58061275382966 810.2713004547509 367.59614528313097 810.0309628729949 367.55290284304886 809.7906252912389 367.5096604029667 809.5676208414967 367.41015624615045 809.3446163917545 367.3106520893342 809.3447032465451 367.31070420841996 Z" fill="hsl(0, 0%, 0%)" style="--darkreader-inline-fill: var(--darkreader-text-000000, #e8e6e3);" data-darkreader-inline-fill=""></path><path d="M 809.7469799868795 377.2241103857777 Q 809.7469799868795 377.2241103857777 808.6599924111674 376.8643409357339 807.5730048354553 376.50457148569006 804.0819663864422 375.3994868928405 800.590927937429 374.29440229999096 798.9281553819233 372.8396107826365 797.2653828264174 371.38481926528203 797.2673519222878 371.38941520495234 797.2693210181584 371.3940111446226 797.271290114029 371.39860708429285 797.2732592098994 371.40320302396316 799.4383193026276 370.86507051541156 801.603379395356 370.32693800685996 805.2296634457218 371.4907801691543 808.8559474960875 372.6546223314486 809.9415687155415 373.0190584630698 811.0271899349955 373.38349459469106 811.2476762532078 373.4879926549102 811.4681625714201 373.5924907151294 811.6572327488747 373.7467195357359 811.8463029263293 373.90094835634244 811.9929681954291 374.0959441510363 812.1396334645289 374.29093994573014 812.2353696329427 374.5153695497619 812.3311058013566 374.73979915379357 812.3703486784781 374.980618708032 812.4095915555996 375.2214382622705 812.3900603435668 375.46465132290854 812.3705291315339 375.70786438354656 812.2933589853076 375.9393353960726 812.2161888390814 376.1708064085986 812.0858648911862 376.3770822668889 811.955540943291 376.58335812517925 811.7796376277018 376.75245006665824 811.6037343121127 376.92154200813724 811.3924751377964 377.0436224012214 811.1812159634801 377.16570279430556 810.9468793235739 377.23367632081295 810.7125426836676 377.3016498473203 810.4687482346931 377.31156588269647 810.2249537857185 377.32148191807266 809.9858708725046 377.27276414187577 809.7467879592908 377.2240463656789 809.7468839730852 377.22407837572825 Z" fill="hsl(0, 0%, 0%)" style="--darkreader-inline-fill: var(--darkreader-text-000000, #e8e6e3);" data-darkreader-inline-fill=""></path><path d="M 806.2169799804688 380.1088052463963 Q 806.2169799804688 380.1088052463963 804.9496261749268 380.11092798007337 803.6822723693848 380.1130507137504 800.3083210914192 380.52767768677796 796.9343698134536 380.94230465980553 794.658030851798 380.5424563691979 792.3816918901424 380.14260807859023 792.3794435228892 380.13814211344317 792.3771951556361 380.1336761482961 792.3749467883829 380.12921018314904 792.3726984211297 380.124744218002 795.1195659700461 378.41195404909473 797.8664335189626 376.6991638801875 800.7743529441736 376.3769188879061 803.6822723693848 376.0546738956246 804.9496261749268 376.05679662930163 806.2169799804688 376.0589193629787 806.4592878250112 376.08834180770714 806.7015956695537 376.11776425243556 806.9298205707867 376.2043215527508 807.1580454720195 376.290878853066 807.35892298796 376.4295402946068 807.5598005039005 376.5682017361476 807.7216556238841 376.7509083094167 807.8835107438675 376.9336148826858 807.9969364407159 377.14974767306035 808.1103621375643 377.36588046343485 808.1687661044473 377.6028778229833 808.2271700713304 377.8398751825318 808.2271578669488 378.08396281358193 808.2271456625673 378.328050444632 808.1687179962403 378.5650419625988 808.1102903299134 378.8020334805656 807.9968430203531 379.01815492728986 807.8833957107929 379.23427637401403 807.7215223209614 379.4169667608576 807.5596489311298 379.5996571477012 807.3587575500495 379.73829850079716 807.1578661689692 379.87693985389313 806.9296326131475 379.96347433128545 806.7013990573257 380.0500088086778 806.4590882717503 380.0794070224747 806.2167774861749 380.10880523627156 806.2168787333219 380.1088052413339 Z" fill="hsl(0, 0%, 0%)" style="--darkreader-inline-fill: var(--darkreader-text-000000, #e8e6e3);" data-darkreader-inline-fill=""></path><path d="M 809.3284185299601 381.4619517087973 Q 809.3284185299601 381.4619517087973 808.2425579147139 381.6457981460925 807.1566972994676 381.82964458338773 804.0295692195289 381.7923090716018 800.9024411395902 381.7549735598158 800.8997812789298 381.7507397505065 800.8971214182695 381.7465059411972 800.8944615576092 381.7422721318879 800.8918016969488 381.7380383225786 803.6919978164165 379.7901805884675 806.492193935884 377.8423228543564 807.5789580154619 377.66406252590457 808.6657220950399 377.4858021974527 808.9084327281778 377.4750393002361 809.1511433613158 377.46427640301954 809.3893766280355 377.5119125449994 809.6276098947553 377.5595486869792 809.8475196664019 377.6628152533454 810.0674294380485 377.7660818197116 810.2562345483614 377.918976952775 810.4450396586742 378.0718720858384 810.5917667457709 378.2655095132816 810.7384938328677 378.4591469407248 810.8346151115522 378.6822724461668 810.9307363902369 378.9053979516088 810.970665287276 379.14504347018976 811.0105941843152 379.38468898877073 810.9920100303369 379.62692631169114 810.9734258763586 379.8691636346115 810.8974087832653 380.0999139172816 810.8213916901718 380.33066419995174 810.6923597749856 380.5365162251011 810.5633278597994 380.7423682502505 810.3887804634935 380.91135788850545 810.2142330671877 381.0803475267604 810.0043148926366 381.20265309240574 809.7943967180853 381.324958658051 809.5613082194567 381.3934717458648 809.3282197208281 381.4619848336786 809.328319125394 381.461968271238 Z" fill="hsl(0, 0%, 0%)" style="--darkreader-inline-fill: var(--darkreader-text-000000, #e8e6e3);" data-darkreader-inline-fill=""></path></svg>